<?xml version="1.0" standalone="no"?>
<!DOCTYPE svg PUBLIC "-//W3C//DTD SVG 20010904//EN"
 "http://www.w3.org/TR/2001/REC-SVG-20010904/DTD/svg10.dtd">
<svg version="1.0" xmlns="http://www.w3.org/2000/svg"
 width="32.000000pt" height="32.000000pt" viewBox="0 0 32.000000 32.000000"
 preserveAspectRatio="xMidYMid meet">
<metadata>
Created by potrace 1.16, written by Peter Selinger 2001-2019
</metadata>
<g transform="translate(0.000000,32.000000) scale(0.100000,-0.100000)"
fill="#000000" stroke="none">
<path d="M115 252 c5 -24 3 -31 -7 -27 -10 4 -14 -10 -16 -57 -2 -35 -4 -74
-5 -87 -1 -13 3 -26 10 -28 7 -3 9 3 6 16 -7 27 14 27 22 1 3 -11 14 -20 24
-20 26 0 16 46 -12 54 -19 5 -20 6 -5 23 10 11 14 28 11 46 -5 24 -2 27 21 27
15 0 25 -4 22 -9 -4 -5 0 -12 6 -15 10 -5 10 -7 1 -12 -7 -3 -13 -12 -13 -20
0 -8 -6 -11 -15 -8 -11 5 -13 2 -9 -11 5 -11 10 -13 17 -6 25 25 40 12 34 -29
-4 -35 -2 -40 14 -40 16 0 19 8 19 58 0 47 -4 59 -21 70 -16 10 -19 19 -14 39
5 20 3 24 -9 20 -11 -5 -16 0 -16 14 0 12 -5 19 -12 16 -7 -2 -12 -11 -10 -21
2 -9 -2 -16 -8 -16 -5 0 -10 5 -10 11 0 6 -7 18 -16 27 -15 15 -16 13 -9 -16z"/>
</g>
</svg>
